#!OML:ASF E:\Style4\Style4.ASF
:FULLY-SPECIFIED
:DEGREES
1077
root 0.346268 17.1302 -1.54248 4.25132 -16.565 4.61436
lowerback 16.6649 2.06845 -2.29427
upperback 8.65707 2.26764 -0.999545
thorax -0.163033 1.04697 -0.126064
lowerneck 0.565322 -2.2283 -6.05307
upperneck -0.598 -3.00263 3.01881
head -0.139097 -1.49903 1.98025
rclavicle -6.75868e-015 1.51076e-014
rhumerus -7.97392 12.494 -81.092
rradius 125.507
rwrist -9.19406
rhand 29.3776 0.737265
rfingers 7.12502
rthumb 53.1466 -18.6619
lclavicle -6.75868e-015 1.51076e-014
lhumerus -6.00345 -29.7555 79.5151
lradius 125.226
lwrist -13.9059
lhand 23.8078 41.5383
lfingers 7.12502
lthumb 48.0644 63.721
rfemur -34.9269 5.24837 12.9239
rtibia 49.5428
rfoot -18.7422 -9.90246
rtoes -18.0164
lfemur -27.7082 8.54565 -23.7295
ltibia 46.746
lfoot -24.6224 12.8034
ltoes -13.9624
1078
root 0.341687 17.1228 -1.54522 4.11296 -16.5249 4.57201
lowerback 16.7749 2.07863 -2.31937
upperback 8.71349 2.2744 -0.959624
thorax -0.162561 1.04797 -0.0737961
lowerneck 0.562243 -2.22113 -6.10912
upperneck -0.588649 -2.99319 3.05144
head -0.134754 -1.49438 2.0009
rclavicle 3.97569e-016 -1.19271e-015
rhumerus -7.86691 12.3841 -81.018
rradius 125.6
rwrist -9.20684
rhand 29.7607 0.604827
rfingers 7.12502
rthumb 53.4917 -18.5712
lclavicle 3.97569e-016 -1.19271e-015
lhumerus -5.91076 -29.7958 79.444
lradius 125.198
lwrist -14.0018
lhand 23.7328 41.5097
lfingers 7.12502
lthumb 47.9952 63.7248
rfemur -34.8069 5.27993 13.0004
rtibia 49.6643
rfoot -18.8398 -9.98904
rtoes -18.6103
lfemur -27.612 8.5274 -23.6384
ltibia 46.8593
lfoot -24.7404 12.7034
ltoes -13.5277
1079
root 0.337696 17.1159 -1.54467 4 -16.5451 4.55157
lowerback 16.8329 2.10683 -2.35235
upperback 8.76566 2.30482 -0.939604
thorax -0.139289 1.06079 -0.0402753
lowerneck 0.594977 -2.22811 -6.28037
upperneck -0.640162 -3.00503 3.16096
head -0.151595 -1.49996 2.06864
rclavicle -1.92821e-014 -1.39149e-014
rhumerus -7.74244 12.2301 -80.9719
rradius 125.725
rwrist -9.47864
rhand 30.418 0.181456
rfingers 7.12502
rthumb 54.0824 -18.6007
lclavicle -1.92821e-014 -1.39149e-014
lhumerus -5.76666 -29.8353 79.3258
lradius 125.178
lwrist -14.0433
lhand 23.6556 41.5735
lfingers 7.12502
lthumb 47.9241 63.8216
rfemur -34.7322 5.34707 13.0374
rtibia 49.7425
rfoot -18.8557 -10.0788
rtoes -19.1234
lfemur -27.5171 8.56789 -23.5899
ltibia 46.9533
lfoot -24.7649 12.7784
ltoes -14.1191
1080
root 0.336804 17.1086 -1.54684 3.92723 -16.5028 4.60386
lowerback 16.8916 2.10775 -2.39031
upperback 8.80079 2.29841 -0.955372
thorax -0.132656 1.05636 -0.0356713
lowerneck 0.652156 -2.24722 -6.33593
upperneck -0.792345 -3.03366 3.17826
head -0.206485 -1.51292 2.0866
rclavicle 2.60408e-014 2.78299e-015
rhumerus -7.6377 12.2077 -80.9751
rradius 125.664
rwrist -9.17388
rhand 30.2802 0.416106
rfingers 7.12502
rthumb 53.9587 -18.4498
lclavicle 2.60408e-014 2.78299e-015
lhumerus -5.63504 -29.8401 79.2152
lradius 125.141
lwrist -14.0638
lhand 23.6671 41.6641
lfingers 7.12502
lthumb 47.9346 63.9074
rfemur -34.7225 5.32008 12.9903
rtibia 49.8066
rfoot -18.8101 -10.2554
rtoes -20.321
lfemur -27.5024 8.52128 -23.6285
ltibia 47.0399
lfoot -24.7501 12.8381
ltoes -14.4487
1081
root 0.335657 17.103 -1.54994 3.85537 -16.4593 4.60086
lowerback 16.9922 2.10033 -2.3824
upperback 8.81766 2.28624 -0.951041
thorax -0.166449 1.05045 -0.0365153
lowerneck 0.643534 -2.21766 -6.21594
upperneck -0.830015 -2.99338 3.0416
head -0.222676 -1.49206 2.02042
rclavicle 9.54166e-015 1.43125e-014
rhumerus -7.55442 12.2875 -80.9951
rradius 125.55
rwrist -8.68118
rhand 29.6657 0.788212
rfingers 7.12502
rthumb 53.4062 -18.4435
lclavicle 9.54166e-015 1.43125e-014
lhumerus -5.60585 -29.8277 79.1891
lradius 125.099
lwrist -14.1046
lhand 23.6477 41.6888
lfingers 7.12502
lthumb 47.9168 63.9403
rfemur -34.6868 5.28997 13.0134
rtibia 49.8786
rfoot -18.9307 -10.2742
rtoes -20.0026
lfemur -27.4852 8.50411 -23.6024
ltibia 47.1219
lfoot -24.7404 12.8162
ltoes -14.2343
1082
root 0.332857 17.0975 -1.55038 3.79056 -16.4674 4.55341
lowerback 17.0518 2.09795 -2.36616
upperback 8.82791 2.28339 -0.936947
thorax -0.18635 1.04911 -0.0321364
lowerneck 0.653904 -2.14942 -6.13049
upperneck -0.820828 -2.9032 2.91134
head -0.229111 -1.44678 1.96261
rclavicle 1.25234e-014 1.19271e-015
rhumerus -7.50857 12.4151 -81.0408
rradius 125.415
rwrist -8.14882
rhand 29.0814 1.28307
rfingers 7.12502
rthumb 52.8792 -18.2855
lclavicle 1.25234e-014 1.19271e-015
lhumerus -5.66379 -29.7771 79.216
lradius 125.076
lwrist -14.1891
lhand 23.6362 41.7013
lfingers 7.12502
lthumb 47.9061 63.9578
rfemur -34.6566 5.32857 13.083
rtibia 49.9743
rfoot -19.1116 -10.2096
rtoes -19.1097
lfemur -27.4445 8.5791 -23.5357
ltibia 47.1939
lfoot -24.7209 12.8315
ltoes -14.4801
1083
root 0.3314 17.0952 -1.54854 3.74509 -16.4852 4.55348
lowerback 17.0599 2.09109 -2.35276
upperback 8.83862 2.27551 -0.962323
thorax -0.177427 1.04598 -0.0649992
lowerneck 0.69766 -2.11249 -6.13256
upperneck -0.854316 -2.85652 2.90822
head -0.249289 -1.42327 1.96298
rclavicle -4.31363e-014 4.53229e-014
rhumerus -7.49408 12.5094 -81.1397
rradius 125.339
rwrist -7.92646
rhand 28.7441 1.48334
rfingers 7.12502
rthumb 52.5744 -18.2748
lclavicle -4.31363e-014 4.53229e-014
lhumerus -5.71427 -29.7678 79.1828
lradius 125.08
lwrist -14.3338
lhand 23.6489 41.8228
lfingers 7.12502
lthumb 47.9179 64.0738
rfemur -34.6458 5.31558 13.106
rtibia 50.0857
rfoot -19.0842 -10.1406
rtoes -18.8922
lfemur -27.4126 8.63443 -23.5254
ltibia 47.2465
lfoot -24.7933 12.722
ltoes -14.4807
1084
root 0.331178 17.0919 -1.54586 3.70088 -16.5038 4.62879
lowerback 17.0466 2.10147 -2.44134
upperback 8.8509 2.27647 -0.976056
thorax -0.159778 1.04367 -0.0291325
lowerneck 0.672707 -2.08506 -6.17313
upperneck -0.82692 -2.8188 2.92353
head -0.237507 -1.40452 1.9747
rclavicle 4.11484e-014 -3.57812e-015
rhumerus -7.46046 12.4513 -81.1746
rradius 125.401
rwrist -8.29234
rhand 29.1733 0.957728
rfingers 7.12502
rthumb 52.9622 -18.5585
lclavicle 4.11484e-014 -3.57812e-015
lhumerus -5.73653 -29.7231 79.1796
lradius 125.032
lwrist -14.4294
lhand 23.596 41.7836
lfingers 7.12502
lthumb 47.8691 64.0573
rfemur -34.6507 5.29647 13.0374
rtibia 50.1938
rfoot -19.0674 -10.0663
rtoes -18.4144
lfemur -27.3859 8.66494 -23.6046
ltibia 47.2765
lfoot -24.772 12.6826
ltoes -14.3614
1085
root 0.330157 17.0892 -1.5432 3.67712 -16.5413 4.68345
lowerback 17.0145 2.13026 -2.5007
upperback 8.85835 2.30632 -0.990871
thorax -0.137071 1.05672 -0.0151826
lowerneck 0.660099 -2.06334 -6.1925
upperneck -0.78834 -2.78936 2.92608
head -0.224417 -1.39011 1.97852
rclavicle 9.14409e-015 -8.34896e-015
rhumerus -7.38918 12.1639 -81.1843
rradius 125.483
rwrist -8.82924
rhand 30.3404 0.221111
rfingers 7.12502
rthumb 54.0127 -18.6083
lclavicle 9.14409e-015 -8.34896e-015
lhumerus -5.73974 -29.6978 79.1766
lradius 124.941
lwrist -14.5307
lhand 23.682 41.7815
lfingers 7.12502
lthumb 47.9484 64.0183
rfemur -34.6738 5.31024 12.9795
rtibia 50.2625
rfoot -19.1076 -10.068
rtoes -18.3584
lfemur -27.3652 8.70803 -23.6614
ltibia 47.2828
lfoot -24.8296 12.5978
ltoes -13.8636
1086
root 0.329361 17.0886 -1.54188 3.68741 -16.5294 4.71022
lowerback 16.9789 2.12442 -2.50112
upperback 8.85583 2.29977 -1.01238
thorax -0.120313 1.05395 -0.035266
lowerneck 0.668119 -2.0297 -6.19698
upperneck -0.78246 -2.74518 2.90918
head -0.226254 -1.36803 1.9739
rclavicle 7.15625e-015 3.97569e-015
rhumerus -7.34543 11.9774 -81.2508
rradius 125.521
rwrist -9.08837
rhand 30.9997 -0.325001
rfingers 7.12502
rthumb 54.6034 -18.7467
lclavicle 7.15625e-015 3.97569e-015
lhumerus -5.76528 -29.6751 79.1813
lradius 124.833
lwrist -14.6299
lhand 23.7927 41.7594
lfingers 7.12502
lthumb 48.0505 63.9486
rfemur -34.6981 5.30222 12.9505
rtibia 50.2861
rfoot -19.1567 -10.0179
rtoes -17.9308
lfemur -27.3819 8.70026 -23.6896
ltibia 47.2766
lfoot -24.8772 12.5631
ltoes -13.6154
1087
root 0.329279 17.0877 -1.54124 3.66817 -16.4943 4.75963
lowerback 16.9838 2.11335 -2.534
upperback 8.8562 2.28037 -1.02454
thorax -0.122671 1.0436 -0.0264287
lowerneck 0.660352 -2.00782 -6.17528
upperneck -0.75788 -2.71581 2.85217
head -0.219725 -1.35339 1.95106
rclavicle 2.10712e-014 -1.82882e-014
rhumerus -7.37885 12.0574 -81.3589
rradius 125.401
rwrist -8.63921
rhand 30.3247 -0.245935
rfingers 7.12502
rthumb 53.9987 -19.0849
lclavicle 2.10712e-014 -1.82882e-014
lhumerus -5.79875 -29.5922 79.2213
lradius 124.719
lwrist -14.78
lhand 23.8368 41.7107
lfingers 7.12502
lthumb 48.0911 63.8809
rfemur -34.6854 5.27004 12.8949
rtibia 50.2682
rfoot -19.0627 -10.1779
rtoes -19.2032
lfemur -27.3601 8.66806 -23.7405
ltibia 47.2599
lfoot -24.8809 12.6148
ltoes -13.893
